<svg width="308" height="308" viewBox="0 0 308 308" fill="none" xmlns="http://www.w3.org/2000/svg">
<g filter="url(#filter0_d_61_1780)">
<mask id="mask0_61_1780" style="mask-type:alpha" maskUnits="userSpaceOnUse" x="4" y="0" width="300" height="300">
<circle cx="154" cy="150" r="150" fill="#E0E0E0"/>
</mask>
<g mask="url(#mask0_61_1780)">
<circle cx="154" cy="150" r="150" fill="#FAFAFA"/>
<g filter="url(#filter1_d_61_1780)">
<path fill-rule="evenodd" clip-rule="evenodd" d="M-5 117.696L-0.29 114.898C4.42 112.099 14.1017 106.503 23.5217 117.696C32.9417 128.888 42.6233 156.868 52.0433 162.464C61.725 168.06 71.145 151.272 80.565 151.272C90.2467 151.272 99.6667 168.06 109.087 170.858C118.768 173.656 128.188 155.5 137.608 155.5C147.29 155.5 156.71 165.096 166.392 159.5C175.812 153.904 185.232 140.08 194.913 134.484C204.333 128.888 213.753 140.08 223.435 145.676C232.855 151.272 242.275 151.272 251.957 142.878C261.377 134.484 271.058 117.696 280.478 114.898C289.898 112.099 299.58 123.292 304.29 128.888L309 134.484V252H304.29C299.58 252 289.898 252 280.478 252C271.058 252 261.377 252 251.957 252C242.275 252 232.855 252 223.435 252C213.753 252 204.333 252 194.913 252C185.232 252 175.812 252 166.392 252C156.71 252 147.29 252 137.608 252C128.188 252 118.768 252 109.087 252C99.6667 252 90.2467 252 80.565 252C71.145 252 61.725 252 52.0433 252C42.6233 252 32.9417 252 23.5217 252C14.1017 252 4.42 252 -0.29 252H-5V117.696Z" fill="#3EB2FF"/>
<path fill-rule="evenodd" clip-rule="evenodd" d="M-5 117.696L-0.29 114.898C4.42 112.099 14.1017 106.503 23.5217 117.696C32.9417 128.888 42.6233 156.868 52.0433 162.464C61.725 168.06 71.145 151.272 80.565 151.272C90.2467 151.272 99.6667 168.06 109.087 170.858C118.768 173.656 128.188 155.5 137.608 155.5C147.29 155.5 156.71 165.096 166.392 159.5C175.812 153.904 185.232 140.08 194.913 134.484C204.333 128.888 213.753 140.08 223.435 145.676C232.855 151.272 242.275 151.272 251.957 142.878C261.377 134.484 271.058 117.696 280.478 114.898C289.898 112.099 299.58 123.292 304.29 128.888L309 134.484V252H304.29C299.58 252 289.898 252 280.478 252C271.058 252 261.377 252 251.957 252C242.275 252 232.855 252 223.435 252C213.753 252 204.333 252 194.913 252C185.232 252 175.812 252 166.392 252C156.71 252 147.29 252 137.608 252C128.188 252 118.768 252 109.087 252C99.6667 252 90.2467 252 80.565 252C71.145 252 61.725 252 52.0433 252C42.6233 252 32.9417 252 23.5217 252C14.1017 252 4.42 252 -0.29 252H-5V117.696Z" stroke="black"/>
</g>
<g filter="url(#filter2_d_61_1780)">
<path fill-rule="evenodd" clip-rule="evenodd" d="M11 196L20.3667 200.952C29.7333 205.905 48.4667 215.81 67.2 214.159C85.9333 210.857 104.667 196 123.4 205.905C142.133 215.81 160.867 239.746 179.6 248C198.333 254.603 217.067 245.524 235.8 233.968C254.533 220.762 273.267 215.81 282.633 214.159L292 210.857V300H282.633C273.267 300 254.533 300 235.8 300C217.067 300 198.333 300 179.6 300C160.867 300 142.133 300 123.4 300C104.667 300 85.9333 300 67.2 300C48.4667 300 29.7333 300 20.3667 300H11V196Z" fill="#0099FF"/>
<path fill-rule="evenodd" clip-rule="evenodd" d="M11 196L20.3667 200.952C29.7333 205.905 48.4667 215.81 67.2 214.159C85.9333 210.857 104.667 196 123.4 205.905C142.133 215.81 160.867 239.746 179.6 248C198.333 254.603 217.067 245.524 235.8 233.968C254.533 220.762 273.267 215.81 282.633 214.159L292 210.857V300H282.633C273.267 300 254.533 300 235.8 300C217.067 300 198.333 300 179.6 300C160.867 300 142.133 300 123.4 300C104.667 300 85.9333 300 67.2 300C48.4667 300 29.7333 300 20.3667 300H11V196Z" stroke="black"/>
</g>
<g filter="url(#filter3_d_61_1780)">
<path d="M61.2482 98.984V96.424H113.344V111.72H64.4482V98.984H61.2482ZM81.9842 122.664V117.48H59.3282V114.92H118.464V117.48H95.8722V122.664H113.344V132.648H78.3363V136.872C81.7069 137 85.3336 137.533 89.2163 138.472C91.4776 139.027 93.6109 139.432 95.6162 139.688C97.6643 139.987 99.6483 140.136 101.568 140.136C103.531 140.136 105.515 139.987 107.52 139.688C109.568 139.432 111.723 139.027 113.984 138.472V141.032C111.723 141.587 109.568 141.992 107.52 142.248C105.515 142.547 103.531 142.696 101.568 142.696C99.6483 142.696 97.6643 142.547 95.6162 142.248C93.6109 141.992 91.4776 141.587 89.2163 141.032C86.9549 140.477 84.8002 140.051 82.7523 139.752C80.7469 139.496 78.7629 139.368 76.8002 139.368C74.8802 139.368 72.8962 139.496 70.8482 139.752C68.8429 140.051 66.7096 140.477 64.4482 141.032V130.088H99.4562V125.224H64.4482V122.664H81.9842ZM78.2083 109.16H99.5843V98.984H78.2083V109.16Z" fill="#3F51B5"/>
<path d="M166.004 96.424V119.912H132.468V98.984H129.268V96.424H166.004ZM171.316 94.952H185.204V110.696H191.22V113.256H185.204V128.872H171.316V94.952ZM185.844 141.032C181.449 142.099 176.99 142.632 172.468 142.632C167.988 142.632 163.55 142.099 159.156 141.032C154.761 139.965 150.302 139.432 145.78 139.432C141.3 139.432 136.862 139.965 132.468 141.032V123.944H146.356V136.872C150.75 136.957 155.017 137.491 159.156 138.472C163.55 139.539 167.988 140.072 172.468 140.072C176.99 140.072 181.449 139.539 185.844 138.472V141.032ZM146.228 117.352H152.244V98.984H146.228V117.352ZM230.166 94.952H244.054V110.696H250.07V113.256H244.054V128.872H230.166V94.952ZM225.494 117.352V119.912H191.318V98.984H188.118V96.424H205.206V117.352H225.494ZM244.694 141.032C240.299 142.099 235.84 142.632 231.318 142.632C226.838 142.632 222.4 142.099 218.006 141.032C213.611 139.965 209.152 139.432 204.63 139.432C200.15 139.432 195.712 139.965 191.318 141.032V123.944H205.206V136.872C209.6 136.957 213.867 137.491 218.006 138.472C222.4 139.539 226.838 140.072 231.318 140.072C235.84 140.072 240.299 139.539 244.694 138.472V141.032Z" fill="black"/>
<path d="M85.818 159.784L96.954 205.672H82.49L73.274 167.72L64.058 205.672H60.794L71.29 162.344H68.09V159.784H85.818ZM102.202 158.952H116.09V206.312H102.202V158.952ZM244.7 196.776C244.7 198.269 244.337 199.571 243.612 200.68C242.887 201.789 241.521 202.707 239.516 203.432C237.553 204.157 234.844 204.712 231.388 205.096C227.932 205.48 223.473 205.672 218.012 205.672C212.551 205.672 208.092 205.48 204.636 205.096C201.18 204.712 198.449 204.157 196.444 203.432C194.481 202.707 193.137 201.789 192.412 200.68C191.687 199.571 191.324 198.269 191.324 196.776C191.324 195.325 191.687 194.045 192.412 192.936C193.137 191.784 194.481 190.845 196.444 190.12C198.449 189.395 201.18 188.84 204.636 188.456C208.092 188.072 212.551 187.88 218.012 187.88C223.473 187.88 227.932 188.072 231.388 188.456C234.844 188.84 237.553 189.395 239.516 190.12C241.521 190.845 242.887 191.784 243.612 192.936C244.337 194.045 244.7 195.325 244.7 196.776ZM225.564 160.424V162.984H215.068L226.204 184.552H211.74L202.524 166.76L193.308 184.552H190.044L201.18 162.984H190.684V160.424H225.564ZM230.172 158.952H244.06V170.856H250.076V173.416H244.06V185.192H230.172V158.952ZM205.084 196.776C205.084 197.672 205.297 198.525 205.724 199.336C206.151 200.104 206.855 200.765 207.836 201.32C208.86 201.875 210.204 202.301 211.868 202.6C213.532 202.941 215.58 203.112 218.012 203.112C220.444 203.112 222.492 202.941 224.156 202.6C225.82 202.301 227.143 201.875 228.124 201.32C229.148 200.765 229.873 200.104 230.3 199.336C230.727 198.525 230.94 197.672 230.94 196.776C230.94 195.88 230.727 195.048 230.3 194.28C229.873 193.469 229.148 192.787 228.124 192.232C227.143 191.677 225.82 191.251 224.156 190.952C222.492 190.611 220.444 190.44 218.012 190.44C215.58 190.44 213.532 190.611 211.868 190.952C210.204 191.251 208.86 191.677 207.836 192.232C206.855 192.787 206.151 193.469 205.724 194.28C205.297 195.048 205.084 195.88 205.084 196.776Z" fill="#FFB300"/>
</g>
<path d="M126.354 93.9493C124.905 95.0778 124.307 94.1234 120.542 93.5877C116.776 93.0519 118.038 92.4432 121.127 89.7689C122.897 88.2361 124.689 88.3297 126.155 89.6959C127.62 91.0622 127.721 92.4842 126.354 93.9493Z" fill="#3F51B5"/>
<path d="M121.847 78.9837C122.341 81.5546 120.739 81.6976 117.612 86.1367C114.486 90.5758 114.531 88.5787 113.135 82.9249C112.335 79.6844 113.617 77.4676 116.307 76.4887C118.996 75.5099 120.87 76.3006 121.847 78.9837Z" fill="#3F51B5"/>
</g>
</g>
<defs>
<filter id="filter0_d_61_1780" x="0" y="0" width="308" height="308" filterUnits="userSpaceOnUse" color-interpolation-filters="sRGB">
<feFlood flood-opacity="0" result="BackgroundImageFix"/>
<feColorMatrix in="SourceAlpha" type="matrix" values="0 0 0 0 0 0 0 0 0 0 0 0 0 0 0 0 0 0 127 0" result="hardAlpha"/>
<feOffset dy="4"/>
<feGaussianBlur stdDeviation="2"/>
<feComposite in2="hardAlpha" operator="out"/>
<feColorMatrix type="matrix" values="0 0 0 0 0 0 0 0 0 0 0 0 0 0 0 0 0 0 0.25 0"/>
<feBlend mode="normal" in2="BackgroundImageFix" result="effect1_dropShadow_61_1780"/>
<feBlend mode="normal" in="SourceGraphic" in2="effect1_dropShadow_61_1780" result="shape"/>
</filter>
<filter id="filter1_d_61_1780" x="-9" y="103" width="322" height="149" filterUnits="userSpaceOnUse" color-interpolation-filters="sRGB">
<feFlood flood-opacity="0" result="BackgroundImageFix"/>
<feColorMatrix in="SourceAlpha" type="matrix" values="0 0 0 0 0 0 0 0 0 0 0 0 0 0 0 0 0 0 127 0" result="hardAlpha"/>
<feOffset dy="-4"/>
<feGaussianBlur stdDeviation="2"/>
<feComposite in2="hardAlpha" operator="out"/>
<feColorMatrix type="matrix" values="0 0 0 0 0 0 0 0 0 0 0 0 0 0 0 0 0 0 0.25 0"/>
<feBlend mode="normal" in2="BackgroundImageFix" result="effect1_dropShadow_61_1780"/>
<feBlend mode="normal" in="SourceGraphic" in2="effect1_dropShadow_61_1780" result="shape"/>
</filter>
<filter id="filter2_d_61_1780" x="7" y="188" width="289" height="112" filterUnits="userSpaceOnUse" color-interpolation-filters="sRGB">
<feFlood flood-opacity="0" result="BackgroundImageFix"/>
<feColorMatrix in="SourceAlpha" type="matrix" values="0 0 0 0 0 0 0 0 0 0 0 0 0 0 0 0 0 0 127 0" result="hardAlpha"/>
<feOffset dy="-4"/>
<feGaussianBlur stdDeviation="2"/>
<feComposite in2="hardAlpha" operator="out"/>
<feColorMatrix type="matrix" values="0 0 0 0 0 0 0 0 0 0 0 0 0 0 0 0 0 0 0.25 0"/>
<feBlend mode="normal" in2="BackgroundImageFix" result="effect1_dropShadow_61_1780"/>
<feBlend mode="normal" in="SourceGraphic" in2="effect1_dropShadow_61_1780" result="shape"/>
</filter>
<filter id="filter3_d_61_1780" x="56.3284" y="94.952" width="198.748" height="119.36" filterUnits="userSpaceOnUse" color-interpolation-filters="sRGB">
<feFlood flood-opacity="0" result="BackgroundImageFix"/>
<feColorMatrix in="SourceAlpha" type="matrix" values="0 0 0 0 0 0 0 0 0 0 0 0 0 0 0 0 0 0 127 0" result="hardAlpha"/>
<feOffset dx="1" dy="4"/>
<feGaussianBlur stdDeviation="2"/>
<feComposite in2="hardAlpha" operator="out"/>
<feColorMatrix type="matrix" values="0 0 0 0 0 0 0 0 0 0 0 0 0 0 0 0 0 0 0.25 0"/>
<feBlend mode="normal" in2="BackgroundImageFix" result="effect1_dropShadow_61_1780"/>
<feBlend mode="normal" in="SourceGraphic" in2="effect1_dropShadow_61_1780" result="shape"/>
</filter>
</defs>
</svg>
